<svg width="168" height="24" viewBox="0 0 168 24" fill="none" xmlns="http://www.w3.org/2000/svg">
<g id="Vector">
<path d="M5.67454 11.05L2.32539 7.56684C2.22863 7.47009 2.18026 7.35101 2.18026 7.2096V4.307C2.18026 4.18792 2.1877 4.10606 2.20258 4.0614C2.22491 4.0093 2.27701 3.94232 2.35888 3.86045L5.70803 0.511304C5.81222 0.414551 5.96107 0.366174 6.15458 0.366174H8.35386C8.53992 0.366174 8.63295 0.459206 8.63295 0.64527V1.87329C8.63295 1.94027 8.62551 2.00354 8.61062 2.06308C8.59574 2.11517 8.55853 2.17099 8.49898 2.23053L5.67454 4.8652V11.05ZM6.15458 24C5.96107 24 5.81222 23.9479 5.70803 23.8437L2.35888 20.4946C2.27701 20.4127 2.22491 20.3457 2.20258 20.2936C2.1877 20.249 2.18026 20.1671 2.18026 20.048V17.1454C2.18026 17.0114 2.22863 16.8961 2.32539 16.7993L5.67454 13.3162V19.4898L8.49898 22.1356C8.55853 22.1877 8.59574 22.2436 8.61062 22.3031C8.62551 22.3626 8.63295 22.4259 8.63295 22.4929V23.7209C8.63295 23.907 8.53992 24 8.35386 24H6.15458ZM1.00806 13.8967C0.844319 13.8967 0.762451 13.8149 0.762451 13.6511V10.715C0.762451 10.5513 0.844319 10.4694 1.00806 10.4694H3.94414C4.10788 10.4694 4.18975 10.5513 4.18975 10.715V13.6511C4.18975 13.8149 4.10788 13.8967 3.94414 13.8967H1.00806Z" fill="#A0FF27"/>
<path d="M18.2738 18.3087C18.0595 18.3087 17.8868 18.3087 17.7558 18.3087C17.6368 18.2968 17.4879 18.2134 17.3093 18.0586L10.9682 12.9143C10.7896 12.7595 10.6824 12.6523 10.6467 12.5928C10.611 12.5214 10.5931 12.3904 10.5931 12.1998V11.6104C10.5931 11.4079 10.611 11.277 10.6467 11.2174C10.6824 11.146 10.7896 11.0388 10.9682 10.8959L17.3093 5.73374C17.4879 5.59085 17.6368 5.5194 17.7558 5.5194C17.8868 5.50749 18.0595 5.50153 18.2738 5.50153H19.6671C20.0839 5.50153 20.2923 5.65039 20.2923 5.94809V9.12755C20.2923 9.23472 20.2804 9.34189 20.2565 9.44907C20.2327 9.55624 20.1434 9.63959 19.9886 9.69913L15.9518 11.271V12.5214L19.9886 14.1111C20.1434 14.1587 20.2327 14.2421 20.2565 14.3611C20.2804 14.4683 20.2923 14.5695 20.2923 14.6648V17.8621C20.2923 18.1598 20.0839 18.3087 19.6671 18.3087H18.2738Z" fill="#A0FF27"/>
<path d="M21.6808 18.3087H20.2875C19.8707 18.3087 19.6623 18.1598 19.6623 17.8621V14.6648C19.6623 14.5695 19.6742 14.4683 19.6981 14.3611C19.7219 14.2421 19.8112 14.1587 19.966 14.1111L24.0028 12.5214V11.271L19.966 9.69913C19.8112 9.63959 19.7219 9.55624 19.6981 9.44907C19.6742 9.34189 19.6623 9.23472 19.6623 9.12755V5.94809C19.6623 5.65039 19.8707 5.50153 20.2875 5.50153H21.6808C21.8951 5.50153 22.0618 5.50749 22.1809 5.5194C22.3119 5.5194 22.4667 5.59085 22.6453 5.73374L28.9864 10.8959C29.165 11.0388 29.2722 11.146 29.3079 11.2174C29.3436 11.277 29.3615 11.4079 29.3615 11.6104V12.1998C29.3615 12.3904 29.3436 12.5214 29.3079 12.5928C29.2722 12.6523 29.165 12.7595 28.9864 12.9143L22.6453 18.0586C22.4667 18.2134 22.3119 18.2968 22.1809 18.3087C22.0618 18.3087 21.8951 18.3087 21.6808 18.3087Z" fill="#A0FF27"/>
<path d="M34.2874 11.05V4.8652L31.463 2.23053C31.4109 2.17099 31.3737 2.11517 31.3513 2.06308C31.3365 2.00354 31.329 1.94027 31.329 1.87329V0.64527C31.329 0.459206 31.422 0.366174 31.6081 0.366174H33.8074C34.0009 0.366174 34.1497 0.414551 34.2539 0.511304L37.6031 3.86045C37.685 3.94232 37.7333 4.0093 37.7482 4.0614C37.7705 4.10606 37.7817 4.18792 37.7817 4.307V7.2096C37.7817 7.35101 37.7333 7.47009 37.6366 7.56684L34.2874 11.05ZM33.8074 24H31.6081C31.422 24 31.329 23.907 31.329 23.7209V22.4929C31.329 22.4259 31.3365 22.3626 31.3513 22.3031C31.3737 22.2436 31.4109 22.1877 31.463 22.1356L34.2874 19.4898V13.3162L37.6366 16.7993C37.7333 16.8961 37.7817 17.0114 37.7817 17.1454V20.048C37.7817 20.1671 37.7705 20.249 37.7482 20.2936C37.7333 20.3457 37.685 20.4127 37.6031 20.4946L34.2539 23.8437C34.1497 23.9479 34.0009 24 33.8074 24ZM38.9539 13.8967H36.0178C35.8541 13.8967 35.7722 13.8149 35.7722 13.6511V10.715C35.7722 10.5513 35.8541 10.4694 36.0178 10.4694H38.9539C39.1176 10.4694 39.1995 10.5513 39.1995 10.715V13.6511C39.1995 13.8149 39.1176 13.8967 38.9539 13.8967Z" fill="#A0FF27"/>
<path d="M49.9218 23.8102C49.6241 23.8102 49.4752 23.6614 49.4752 23.3637V0.446553C49.4752 0.148851 49.6241 0 49.9218 0H54.9767C55.2744 0 55.4233 0.148851 55.4233 0.446553V23.3637C55.4233 23.6614 55.2744 23.8102 54.9767 23.8102H49.9218Z" fill="#A0FF27"/>
<path d="M60.0186 23.8102C59.7209 23.8102 59.5721 23.6614 59.5721 23.3637V6.80547C59.5721 6.65067 59.6316 6.47204 59.7507 6.26961L63.984 0.267932C64.115 0.0893105 64.3055 0 64.5556 0H70.4679C70.7299 0 70.9205 0.0893105 71.0395 0.267932L75.2907 6.26961C75.4098 6.43632 75.4693 6.61494 75.4693 6.80547V23.3637C75.4693 23.6614 75.3205 23.8102 75.0228 23.8102H69.9678C69.6701 23.8102 69.5213 23.6614 69.5213 23.3637V15.7723H65.538V23.3637C65.538 23.6614 65.3892 23.8102 65.0915 23.8102H60.0186ZM67.5207 11.9319C68.6162 11.9319 69.3545 11.6937 69.7356 11.2174C70.1286 10.7292 70.3251 9.80631 70.3251 8.44879C70.3251 7.09126 70.1286 6.17434 69.7356 5.69802C69.3545 5.20979 68.6162 4.96567 67.5207 4.96567C66.4371 4.96567 65.6988 5.20979 65.3058 5.69802C64.9247 6.17434 64.7342 7.09126 64.7342 8.44879C64.7342 9.80631 64.9247 10.7292 65.3058 11.2174C65.6988 11.6937 66.4371 11.9319 67.5207 11.9319Z" fill="#A0FF27"/>
<path d="M80.099 23.8102C79.8013 23.8102 79.6524 23.6614 79.6524 23.3637V0.446553C79.6524 0.148851 79.8013 0 80.099 0H89.7803C90.066 0 90.3042 0.0774026 90.4947 0.232208L94.603 4.30477C94.734 4.42385 94.8114 4.52507 94.8352 4.60843C94.871 4.69178 94.8888 4.82873 94.8888 5.01926V9.91348C94.8888 10.0683 94.8293 10.2052 94.7102 10.3243L92.7454 12.2356L91.0842 13.6645L93.049 16.2724L95.0675 20.595C95.1151 20.7022 95.1508 20.8094 95.1746 20.9166C95.2103 21.0118 95.2282 21.1309 95.2282 21.2738V23.3637C95.2282 23.6614 95.0794 23.8102 94.7817 23.8102H90.066C89.8041 23.8102 89.6255 23.6911 89.5302 23.453L86.6544 15.0935H85.3147V23.3637C85.3147 23.6614 85.1659 23.8102 84.8682 23.8102H80.099ZM87.2796 10.7173C88.2679 10.7173 88.9407 10.5148 89.298 10.11C89.6552 9.69318 89.8338 8.91916 89.8338 7.78789C89.8338 6.64471 89.6552 5.87069 89.298 5.46581C88.9407 5.04903 88.2679 4.84064 87.2796 4.84064C86.3031 4.84064 85.6303 5.04903 85.2611 5.46581C84.892 5.87069 84.7074 6.64471 84.7074 7.78789C84.7074 8.91916 84.892 9.69318 85.2611 10.11C85.6303 10.5148 86.3031 10.7173 87.2796 10.7173Z" fill="#A0FF27"/>
<path d="M98.3943 23.8102C98.0966 23.8102 97.9477 23.6614 97.9477 23.3637V6.80547C97.9477 6.65067 98.0073 6.47204 98.1263 6.26961L102.36 0.267932C102.491 0.0893105 102.681 0 102.931 0H108.844C109.106 0 109.296 0.0893105 109.415 0.267932L113.666 6.26961C113.785 6.43632 113.845 6.61494 113.845 6.80547V23.3637C113.845 23.6614 113.696 23.8102 113.398 23.8102H108.343C108.046 23.8102 107.897 23.6614 107.897 23.3637V15.7723H103.914V23.3637C103.914 23.6614 103.765 23.8102 103.467 23.8102H98.3943ZM105.896 11.9319C106.992 11.9319 107.73 11.6937 108.111 11.2174C108.504 10.7292 108.701 9.80631 108.701 8.44879C108.701 7.09126 108.504 6.17434 108.111 5.69802C107.73 5.20979 106.992 4.96567 105.896 4.96567C104.813 4.96567 104.074 5.20979 103.681 5.69802C103.3 6.17434 103.11 7.09126 103.11 8.44879C103.11 9.80631 103.3 10.7292 103.681 11.2174C104.074 11.6937 104.813 11.9319 105.896 11.9319Z" fill="#A0FF27"/>
<path d="M121.345 23.8102C121.202 23.8102 121.083 23.7596 120.988 23.6584L119.201 21.8722C119.1 21.7769 119.05 21.6578 119.05 21.5149V14.1915C119.05 14.0545 119.1 13.9354 119.201 13.8342L120.988 12.048C121.083 11.9527 121.202 11.9051 121.345 11.9051H126.623C126.772 11.9051 126.846 11.9795 126.846 12.1284V14.0575C126.846 14.2063 126.772 14.2808 126.623 14.2808H122.327C122.244 14.2808 122.172 14.3105 122.113 14.3701C122.053 14.4296 122.024 14.5011 122.024 14.5844V21.113C122.024 21.1964 122.053 21.2678 122.113 21.3274C122.172 21.3869 122.244 21.4167 122.327 21.4167H124.256V19.0321H123.113C122.964 19.0321 122.89 18.9577 122.89 18.8088V16.8886C122.89 16.7398 122.964 16.6654 123.113 16.6654H126.775C126.924 16.6654 126.998 16.7398 126.998 16.8886V21.5149C126.998 21.6578 126.948 21.7769 126.846 21.8722L125.06 23.6584C124.965 23.7596 124.846 23.8102 124.703 23.8102H121.345Z" fill="#A0FF27"/>
<path d="M129.031 23.8102C128.882 23.8102 128.808 23.7358 128.808 23.5869V15.3078C128.808 15.2304 128.838 15.1411 128.897 15.0399L131.014 12.0391C131.079 11.9498 131.174 11.9051 131.3 11.9051H134.256C134.387 11.9051 134.482 11.9498 134.541 12.0391L136.667 15.0399C136.727 15.1233 136.756 15.2126 136.756 15.3078V23.5869C136.756 23.7358 136.682 23.8102 136.533 23.8102H134.006C133.857 23.8102 133.782 23.7358 133.782 23.5869V19.7912H131.791V23.5869C131.791 23.7358 131.716 23.8102 131.567 23.8102H129.031ZM132.782 17.8711C133.33 17.8711 133.699 17.752 133.89 17.5138C134.086 17.2697 134.184 16.8083 134.184 16.1295C134.184 15.4507 134.086 14.9923 133.89 14.7541C133.699 14.51 133.33 14.3879 132.782 14.3879C132.24 14.3879 131.871 14.51 131.675 14.7541C131.484 14.9923 131.389 15.4507 131.389 16.1295C131.389 16.8083 131.484 17.2697 131.675 17.5138C131.871 17.752 132.24 17.8711 132.782 17.8711Z" fill="#A0FF27"/>
<path d="M139.071 23.8102C138.922 23.8102 138.848 23.7358 138.848 23.5869V13.8967C138.848 13.7598 138.899 13.6407 139 13.5395L140.482 12.048C140.584 11.9527 140.703 11.9051 140.84 11.9051H142.885C143.022 11.9051 143.141 11.9527 143.242 12.048L144.742 13.5574H145.162L146.663 12.048C146.764 11.9527 146.883 11.9051 147.02 11.9051H149.056C149.199 11.9051 149.318 11.9527 149.413 12.048L150.905 13.5395C151.006 13.6407 151.057 13.7598 151.057 13.8967V23.5869C151.057 23.7358 150.982 23.8102 150.833 23.8102H148.297C148.148 23.8102 148.074 23.7358 148.074 23.5869V14.2808H146.439V23.5869C146.439 23.7358 146.365 23.8102 146.216 23.8102H143.689C143.54 23.8102 143.465 23.7358 143.465 23.5869V14.2808H141.822V23.5869C141.822 23.7358 141.748 23.8102 141.599 23.8102H139.071Z" fill="#A0FF27"/>
<path d="M153.427 23.8102C153.278 23.8102 153.204 23.7358 153.204 23.5869V12.1284C153.204 11.9795 153.278 11.9051 153.427 11.9051H159.652C159.801 11.9051 159.875 11.9795 159.875 12.1284V14.0575C159.875 14.2063 159.801 14.2808 159.652 14.2808H156.178V16.8172H159.348C159.497 16.8172 159.572 16.8916 159.572 17.0405V18.6749C159.572 18.8237 159.497 18.8981 159.348 18.8981H156.178V21.4256H159.652C159.801 21.4256 159.875 21.5 159.875 21.6489V23.5869C159.875 23.7358 159.801 23.8102 159.652 23.8102H153.427Z" fill="#A0FF27"/>
<path d="M161.968 23.8102C161.819 23.8102 161.745 23.7358 161.745 23.5869V21.9079C161.745 21.8305 161.748 21.768 161.754 21.7203C161.766 21.6727 161.802 21.634 161.861 21.6042L164.201 20.5325V18.9428L161.897 17.5138C161.796 17.4543 161.745 17.365 161.745 17.2459V13.9682C161.745 13.8729 161.751 13.8044 161.763 13.7628C161.775 13.7151 161.819 13.6645 161.897 13.6109L164.246 12.0212C164.305 11.9855 164.359 11.9587 164.406 11.9408C164.46 11.917 164.525 11.9051 164.603 11.9051H167.014C167.163 11.9051 167.238 11.9795 167.238 12.1284V13.6467C167.238 13.7777 167.193 13.867 167.104 13.9146L164.764 14.8792V16.5314L167.104 17.8711C167.193 17.9127 167.238 18.008 167.238 18.1569V22.0419C167.238 22.0895 167.229 22.1401 167.211 22.1937C167.199 22.2473 167.169 22.286 167.121 22.3098L164.317 23.703C164.281 23.7209 164.237 23.7447 164.183 23.7745C164.135 23.7983 164.088 23.8102 164.04 23.8102H161.968Z" fill="#A0FF27"/>
</g>
</svg>
